<?xml version="1.0" standalone="no"?>
<!DOCTYPE svg PUBLIC "-//W3C//DTD SVG 20010904//EN"
 "http://www.w3.org/TR/2001/REC-SVG-20010904/DTD/svg10.dtd">
<svg version="1.0" xmlns="http://www.w3.org/2000/svg"
 width="512.000000pt" height="512.000000pt" viewBox="0 0 512.000000 512.000000"
 preserveAspectRatio="xMidYMid meet">

<g transform="translate(0.000000,512.000000) scale(0.100000,-0.100000)"
fill="#000000" stroke="none">
<path d="M219 1132 c-64 -41 -199 -151 -199 -162 0 -23 21 -14 85 36 109 86
152 114 173 114 33 0 216 -70 230 -87 6 -9 12 -25 12 -36 0 -17 -5 -19 -47
-13 -107 14 -123 18 -117 27 3 5 -2 12 -11 16 -18 6 -35 -11 -35 -38 0 -12 20
-18 98 -28 143 -18 152 -20 152 -42 0 -23 -14 -26 -158 -33 -97 -5 -119 -9
-156 -31 -45 -26 -94 -32 -126 -15 -27 14 -39 -9 -14 -27 12 -9 39 -13 73 -12
40 2 57 -1 66 -14 14 -20 57 -37 91 -37 23 0 25 -3 19 -31 -4 -17 -21 -70 -37
-117 -47 -135 -47 -170 -4 -257 42 -86 94 -136 182 -177 80 -38 115 -35 277
20 177 61 228 97 243 171 5 23 1 35 -21 57 -23 23 -32 26 -71 20 l-44 -6 -41
83 c-53 107 -76 130 -180 182 l-86 44 5 73 c2 40 8 80 13 89 4 9 2 25 -6 40
-22 38 -35 69 -35 84 0 28 -50 59 -155 96 -60 22 -114 39 -120 39 -6 0 -31
-13 -56 -28z m211 -287 c-13 -16 -75 -20 -107 -7 -12 5 -1 9 37 13 30 3 61 6
69 7 11 2 11 -1 1 -13z m108 -29 c3 -12 -1 -17 -10 -14 -7 3 -15 13 -16 22 -3
12 1 17 10 14 7 -3 15 -13 16 -22z m-242 -1 c10 -8 34 -15 52 -15 17 0 32 -5
32 -11 0 -15 -87 -4 -106 12 -31 26 -11 39 22 14z m215 -38 c36 -14 38 -27 4
-27 -31 0 -93 -25 -118 -47 -17 -16 -18 -16 -8 10 21 55 42 87 57 87 8 0 18 8
22 18 6 14 7 13 10 -7 2 -15 14 -27 33 -34z m111 -101 c113 -53 145 -85 198
-198 37 -80 40 -91 30 -127 -5 -21 -19 -50 -30 -64 -23 -28 -188 -117 -219
-117 -42 0 -132 43 -180 86 -56 50 -111 149 -111 199 0 41 70 181 107 216 26
24 71 46 100 48 6 1 54 -19 105 -43z m352 -288 c23 -38 -39 -112 -113 -133
l-24 -7 21 34 c12 19 24 53 28 75 6 42 19 53 58 50 10 -1 24 -10 30 -19z"/>
<path d="M540 603 c0 -39 161 -203 199 -203 29 0 15 23 -37 63 -32 25 -77 70
-101 101 -43 57 -61 69 -61 39z"/>
<path d="M480 548 c0 -36 174 -208 211 -208 24 0 3 32 -46 69 -30 23 -73 66
-96 96 -39 51 -69 70 -69 43z"/>
<path d="M426 501 c-18 -28 163 -211 207 -211 29 0 19 15 -42 63 -33 25 -78
71 -101 101 -42 56 -54 64 -64 47z"/>
</g>
</svg>
