<?xml version="1.0" standalone="no"?>
<!DOCTYPE svg PUBLIC "-//W3C//DTD SVG 20010904//EN"
 "http://www.w3.org/TR/2001/REC-SVG-20010904/DTD/svg10.dtd">
<svg version="1.0" xmlns="http://www.w3.org/2000/svg"
 width="512.000000pt" height="512.000000pt" viewBox="0 0 512.000000 512.000000"
 preserveAspectRatio="xMidYMid meet">

<g transform="translate(0.000000,512.000000) scale(0.100000,-0.100000)"
fill="#000000" stroke="none">
<path d="M2415 4339 c-448 -58 -824 -410 -917 -859 -28 -137 -22 -316 17 -460
41 -153 179 -478 435 -1025 179 -382 585 -1199 603 -1214 16 -12 39 30 261
480 455 922 729 1530 792 1759 26 96 29 119 29 265 0 135 -4 173 -23 245 -52
190 -136 340 -267 479 -244 255 -579 374 -930 330z m292 -789 c110 -54 173
-159 173 -288 0 -121 -80 -241 -195 -294 -71 -33 -190 -32 -260 2 -115 56
-185 167 -185 295 0 244 245 393 467 285z"/>
</g>
</svg>
